<?xml version="1.0" encoding="UTF-8"?>
<svg width="16px" height="16px" viewBox="0 0 16 16" version="1.1" xmlns="http://www.w3.org/2000/svg" xmlns:xlink="http://www.w3.org/1999/xlink">
    <title>didian</title>
    <g id="页面-1" stroke="none" stroke-width="1" fill="none" fill-rule="evenodd">
        <g id="日视图-查看视图-图标" transform="translate(-1146.000000, -567.000000)">
            <g id="didian" transform="translate(1146.000000, 567.000000)">
                <rect id="矩形" x="0" y="0" width="16" height="16"></rect>
                <g id="编组-4" transform="translate(1.000000, 0.000000)">
                    <polygon id="Fill-1" fill="#E5ECFF" points="14 16 0 16 1.89619142 12.6838662 12.1038086 12.6838662"></polygon>
                    <path d="M12.0982178,9.57675003 C12.8781749,8.57672911 13.3402211,7.33213263 13.3402211,5.98213451 C13.3402211,2.67856769 10.5679439,0 7.14880198,0 C3.72966007,0 0.957382838,2.67856769 0.957382838,5.98213451 C0.957382838,7.33213263 1.41942904,8.57672911 2.19931683,9.57675003 L2.19012211,9.58572323 L2.26772277,9.66072313 C2.58006601,10.0463699 2.94048515,10.3946284 3.33964686,10.6963913 L6.80316832,14.4143102 L7.14880198,14.376721 L10.9559934,10.6982217 C11.3552475,10.3964587 11.7156667,10.0482003 12.0280099,9.6624642 L12.1056106,9.58748662 L12.0982178,9.57675003 Z" id="Fill-2" fill="#A4BEFF"></path>
                    <path d="M11.6509571,9.57675003 C12.4308449,8.57672911 12.8928911,7.33213263 12.8928911,5.98213451 C12.8928911,2.67856769 10.1206139,0 6.70147195,0 C3.28233003,0 0.510052805,2.67856769 0.510052805,5.98213451 C0.510052805,7.33213263 0.97209901,8.57672911 1.75207921,9.57675003 L1.74286139,9.58572323 L1.82048515,9.66072313 C2.13280528,10.0463699 2.49324752,10.3946284 2.89238614,10.6963913 L6.69966997,14.3749799 L10.5069538,10.6963913 C10.9060924,10.3946284 11.2665347,10.0463699 11.5788548,9.66072313 L11.6564785,9.58572323 L11.6509571,9.57675003 Z" id="Fill-3" fill="#5B79FB"></path>
                    <path d="M5.13610561,5.4053496 C5.13610561,5.99740235 5.4629802,6.54443283 5.99368647,6.84045921 C6.52432343,7.13648558 7.17814191,7.13648558 7.70877888,6.84045921 C8.23939274,6.54443283 8.56635974,5.99740235 8.56635974,5.4053496 C8.56635974,4.49017231 7.79846205,3.7482537 6.85119802,3.7482537 C5.9040033,3.7482537 5.13610561,4.49017231 5.13610561,5.4053496 Z" id="Fill-4" fill="#FFFFFF"></path>
                    <polygon id="Fill-5" fill="#FF7E71" points="11.9244884 15.4410945 2.07740594 15.4410945 2.37494059 14.8285507 11.6250594 14.8285507"></polygon>
                </g>
            </g>
        </g>
    </g>
</svg>