<?xml version="1.0" standalone="no"?><!DOCTYPE svg PUBLIC "-//W3C//DTD SVG 1.1//EN" "http://www.w3.org/Graphics/SVG/1.1/DTD/svg11.dtd"><svg t="1729072567803" class="icon" viewBox="0 0 1024 1024" version="1.1" xmlns="http://www.w3.org/2000/svg" p-id="25554" xmlns:xlink="http://www.w3.org/1999/xlink" width="200" height="200"><path d="M828.952 48.762h97.789C980 48.762 1024 92.224 1024 145.837v781.088c0 53.276-43.544 97.075-97.259 97.075H97.258c-53.259 0-97.259-43.462-97.259-97.075V145.837c0-53.276 43.544-97.075 97.259-97.075h97.789v146.143c0 27.553 22.036 48.905 49.219 48.905h96.61c27.6 0 49.219-21.895 49.219-48.905V48.762h243.81v146.143c0 27.553 22.036 48.905 49.219 48.905h96.61c27.6 0 49.219-21.895 49.219-48.905V48.762zM73.143 341.333v48.762h877.714v-48.762H73.143zM243.81 0h97.524v195.048H243.81V0z m438.857 0h97.524v195.048h-97.524V0z m0 536.381v97.524h146.286v-97.524H682.667z m-243.81 195.048v97.524h146.286v-97.524H438.857z m-243.809 0v97.524h146.286v-97.524H195.048z m243.809-195.048v97.524h146.286v-97.524H438.857z m-243.809 0v97.524h146.286v-97.524H195.048z" fill="#3E85F7" p-id="25555"></path></svg>