<?xml version="1.0" encoding="UTF-8"?>
<svg width="16px" height="16px" viewBox="0 0 16 16" version="1.1" xmlns="http://www.w3.org/2000/svg" xmlns:xlink="http://www.w3.org/1999/xlink">
    <title>忙碌</title>
    <defs>
        <polygon id="path-1" points="0 0 15.9988281 0 15.9988281 16 0 16"></polygon>
    </defs>
    <g id="页面-1" stroke="none" stroke-width="1" fill="none" fill-rule="evenodd">
        <g id="日视图-查看视图-图标" transform="translate(-400.000000, -472.000000)">
            <g id="忙碌" transform="translate(400.000000, 472.000000)">
                <mask id="mask-2" fill="white">
                    <use xlink:href="#path-1"></use>
                </mask>
                <g id="Clip-2"></g>
                <path d="M7.99887695,0 C3.58053171,0 -0.00117187643,3.58170359 -0.00117187643,8.00004883 C-0.00117187643,12.4182964 3.58053171,16 7.99887695,16 C12.4171245,16 15.9988281,12.4182964 15.9988281,8.00004883 C15.9988281,3.58170359 12.4171245,0 7.99887695,0 Z M11.9988037,9.00003052 L3.99885254,9.00003052 C3.72853971,9.0178821 3.46363704,8.91831167 3.27207431,8.72674893 C3.08057017,8.53516667 2.98094114,8.27034213 2.99887085,8.00004883 C2.98094114,7.729736 3.08057017,7.46483333 3.27207431,7.2732706 C3.46363704,7.08176646 3.72853971,6.9821179 3.99885254,6.99996948 L11.9988037,6.99996948 C12.2691165,6.9821179 12.5340192,7.08176646 12.7255819,7.2732706 C12.9170861,7.46483333 13.0167346,7.729736 12.9988831,8.00004883 C13.0167346,8.27034213 12.9170861,8.53516667 12.7255819,8.72674893 C12.5340192,8.91831167 12.2691165,9.0178821 11.9988037,9.00003052 Z" id="Fill-1" fill="#F8353F" mask="url(#mask-2)"></path>
            </g>
        </g>
    </g>
</svg>