<?xml version="1.0" encoding="UTF-8"?>
<svg width="16px" height="16px" viewBox="0 0 16 16" version="1.1" xmlns="http://www.w3.org/2000/svg" xmlns:xlink="http://www.w3.org/1999/xlink">
    <title>时间</title>
    <g id="页面-1" stroke="none" stroke-width="1" fill="none" fill-rule="evenodd">
        <g id="日视图-查看视图-图标" transform="translate(-1146.000000, -545.000000)">
            <g id="shijian-4" transform="translate(1146.000000, 545.000000)">
                <path d="M16,8 C16,12.4182237 12.4183284,16 8,16 C3.58175536,16 0,12.4182237 0,8 C0,3.58167165 3.58175536,0 8,0 C12.4183284,0 16,3.58167165 16,8 Z" id="Fill-3" fill="currentColor"></path>
                <path d="M13.7142977,8 C13.7142977,11.1559458 11.1560505,13.7142767 8,13.7142767 C4.84405417,13.7142767 2.28572325,11.1559458 2.28572325,8 C2.28572325,4.84394954 4.84405417,2.28570233 8,2.28570233 C11.1560505,2.28570233 13.7142977,4.84394954 13.7142977,8 Z" id="Fill-4" fill="currentColor"></path>
                <path d="M8,4.28563432 C8.22734395,4.28563432 8.44535474,4.3759734 8.60613195,4.53675061 C8.76684637,4.69746503 8.85716453,4.91547583 8.85716453,5.14279885 L8.85716453,7.64506805 L10.8914367,9.67940297 C11.2164439,10.0155431 11.2120285,10.5501487 10.8815385,10.8809526 C10.5510485,11.2117774 10.0164638,11.2165904 9.68000984,10.8920017 L7.39428658,8.60627843 C7.23334197,8.44550123 7.14291917,8.22740673 7.14283547,8 L7.14283547,5.14279885 C7.14283547,4.91547583 7.23317455,4.69746503 7.39395176,4.53675061 C7.55466619,4.3759734 7.77267698,4.28563432 8,4.28563432 Z" id="Fill-5" fill="#FFFFFF"></path>
            </g>
        </g>
    </g>
</svg>