<?xml version="1.0" encoding="UTF-8"?>
<svg width="16px" height="16px" viewBox="0 0 16 16" version="1.1" xmlns="http://www.w3.org/2000/svg" xmlns:xlink="http://www.w3.org/1999/xlink">
    <title>会议内容</title>
    <g id="页面-1" stroke="none" stroke-width="1" fill="none" fill-rule="evenodd">
        <g id="日视图-查看视图-图标" transform="translate(-1146.000000, -611.000000)">
            <g id="会议内容" transform="translate(1146.000000, 611.000000)">
                <rect id="矩形" x="0" y="0" width="16" height="16"></rect>
                <g transform="translate(1.000000, 0.000000)">
                    <path d="M1.59540839,0 L9.57265384,0 L13.9600917,4.63158769 L13.9600917,14.3158183 C13.9600917,15.2421084 13.2421486,16 12.3646093,16 L1.59540839,16 C0.717961527,16 0,15.2421084 0,14.3158183 L0,1.68418174 C0,0.757911081 0.717961527,0 1.59540839,0 Z" id="Fill-1" fill="#2F77F1"></path>
                    <path d="M9.61254368,0 L14,4.63158769 L9.61254368,4.63158769 L9.61254368,0 Z M7.55840219,10.3368486 L1.53557363,10.3368486 C1.31623505,10.3368486 1.15673121,10.1474147 1.15673121,9.93684807 L1.15673121,9.89471911 C1.15673121,9.66317586 1.33617996,9.49471862 1.53557363,9.49471862 L7.55840219,9.49471862 C7.75781436,9.49471862 7.93733712,9.68423057 7.93733712,9.89471911 L7.93733712,9.93684807 C7.93733712,10.1474147 7.77775928,10.3368486 7.55840219,10.3368486 Z M5.56411395,4.86313094 L1.53557363,4.86313094 C1.31623505,4.86313094 1.15673121,4.69475182 1.15673121,4.46320857 L1.15673121,4.42107962 C1.15673121,4.18945824 1.33617996,4.02107913 1.53557363,4.02107913 L5.56411395,4.02107913 C5.76352612,4.02107913 5.94297487,4.21051295 5.94297487,4.42107962 L5.94297487,4.46320857 C5.94297487,4.67369711 5.78347104,4.86313094 5.56411395,4.86313094 Z M1.53557363,6.75789887 L5.1652526,6.75789887 C5.36464627,6.75789887 5.54416903,6.94741082 5.54416903,7.15789936 L5.54416903,7.20002832 C5.54416903,7.41051686 5.36464627,7.60002881 5.1652526,7.60002881 L1.53557363,7.60002881 C1.31623505,7.60002881 1.15673121,7.43157157 1.15673121,7.20002832 L1.15673121,7.15789936 C1.15673121,6.92635611 1.33617996,6.75789887 1.53557363,6.75789887 Z" id="Fill-2" fill="#AFFCFE"></path>
                </g>
            </g>
        </g>
    </g>
</svg>