<?xml version="1.0" standalone="no"?><!DOCTYPE svg PUBLIC "-//W3C//DTD SVG 1.1//EN" "http://www.w3.org/Graphics/SVG/1.1/DTD/svg11.dtd"><svg class="icon" width="200px" height="200.00px" viewBox="0 0 1024 1024" version="1.1" xmlns="http://www.w3.org/2000/svg"><path d="M512 1024C230.4 1024 0 793.6 0 512S230.4 0 512 0s512 230.4 512 512-230.4 512-512 512z m0-981.333333C253.866667 42.666667 42.666667 253.866667 42.666667 512s211.2 469.333333 469.333333 469.333333 469.333333-211.2 469.333333-469.333333S770.133333 42.666667 512 42.666667zM629.333333 663.466667L360.533333 394.666667c-8.533333-8.533333-8.533333-23.466667 0-34.133334 8.533333-8.533333 23.466667-8.533333 34.133334 0l268.8 268.8c8.533333 8.533333 8.533333 23.466667 0 34.133334-10.666667 8.533333-25.6 8.533333-34.133334 0zM663.466667 394.666667L394.666667 663.466667c-8.533333 8.533333-23.466667 8.533333-34.133334 0-8.533333-8.533333-8.533333-23.466667 0-34.133334l268.8-268.8c8.533333-8.533333 23.466667-8.533333 34.133334 0 8.533333 10.666667 8.533333 25.6 0 34.133334z" /></svg>