<?xml version="1.0" encoding="UTF-8"?>
<svg width="16px" height="16px" viewBox="0 0 16 16" version="1.1" xmlns="http://www.w3.org/2000/svg" xmlns:xlink="http://www.w3.org/1999/xlink">
    <title>主持人</title>
    <defs>
        <polygon id="path-1" points="0 0 14 0 14 8.59158851 0 8.59158851"></polygon>
    </defs>
    <g id="页面-1" stroke="none" stroke-width="1" fill="none" fill-rule="evenodd">
        <g id="日视图-查看视图-图标" transform="translate(-1146.000000, -589.000000)">
            <g id="主持人" transform="translate(1146.000000, 589.000000)">
                <rect id="矩形" x="0" y="0" width="16" height="16"></rect>
                <g id="编组-5" transform="translate(1.000000, 0.000000)">
                    <path d="M8.31492231,7.66902952 C9.78834339,7.10676276 10.8383498,5.65818936 10.8383498,3.96009478 C10.8383498,1.77237635 9.09814255,0 6.95003032,0 C4.80199564,0 3.06176901,1.77391648 3.06176901,3.96009478 C3.06176901,5.67716458 4.13503995,7.13993484 5.63639787,7.68800474 C6.05512088,7.50790799 6.51577823,7.40841149 6.99811037,7.40841149 C7.46499099,7.41003061 7.9085489,7.50166848 8.31492231,7.66902952 Z M5.06251975,4.87947478 C5.03615327,4.75938395 5.10908761,4.6393721 5.22851227,4.61253826 C5.34634718,4.58560569 5.46425964,4.65988745 5.49062612,4.78151841 C5.62860425,5.39755158 6.26298958,5.8446046 6.99970012,5.8446046 C7.73482092,5.8446046 8.36922563,5.3991707 8.5087935,4.78305854 C8.53667218,4.6630467 8.65458464,4.5872248 8.77241955,4.6156975 C8.89033202,4.64407148 8.96477855,4.76416231 8.93682233,4.88417415 C8.75227634,5.69929904 7.93801732,6.29165762 6.99970012,6.29165762 C6.05981256,6.29165762 5.24555354,5.69767993 5.06251975,4.87947478 Z" id="Fill-1" fill="#FFCA28"></path>
                    <g id="编组" transform="translate(0.000000, 7.408411)">
                        <mask id="mask-2" fill="white">
                            <use xlink:href="#path-1"></use>
                        </mask>
                        <g id="Clip-3"></g>
                        <path d="M8.31492231,0.260618027 C7.9085489,0.0932569849 7.46499099,0 6.99811037,0 C6.51577823,0 6.05512088,0.0994964952 5.63639787,0.279593247 C4.4018261,0.808786652 3.52554769,2.03769375 3.48828564,3.47994866 L10.5095249,3.47994866 C10.4707506,2.02035739 9.57432898,0.780333695 8.31492231,0.260618027 Z M7.79381592,1.99188469 L7.0865738,2.73434692 C7.03688461,2.77861586 6.96245746,2.77861586 6.91284582,2.73434692 L6.20558432,1.99188469 C6.15750426,1.94931385 6.14666686,1.87657222 6.18074942,1.82134465 L6.88801092,0.442353638 C6.93919292,0.357034258 7.06014916,0.357034258 7.11133115,0.442353638 L7.81859266,1.82134465 C7.85273338,1.87657222 7.84183782,1.94931385 7.79381592,1.99188469 Z" id="Fill-2" fill="#FFCA28" mask="url(#mask-2)"></path>
                        <path d="M13.2454739,3.47994866 L0.753945691,3.47994866 C0.262307727,3.47994866 -0.0975753726,3.94905716 0.0218686708,4.43560075 L0.898147086,8.00872742 C0.981899443,8.35148583 1.28437728,8.59158851 1.63022411,8.59158851 L12.3675864,8.59158851 C12.7134526,8.59158851 13.0159304,8.35148583 13.0996828,8.00872742 L13.9774734,4.43560075 C14.0953859,3.95067628 13.7355222,3.47994866 13.2454739,3.47994866 Z" id="Fill-4" fill="#FD7D24" mask="url(#mask-2)"></path>
                    </g>
                    <path d="M8.93682233,4.88417415 C8.96477855,4.76416231 8.89033202,4.64407148 8.77241955,4.6156975 C8.65458464,4.5872248 8.53667218,4.6630467 8.5087935,4.78305854 C8.36922563,5.39755158 7.73482092,5.8446046 6.99970012,5.8446046 C6.26298958,5.8446046 5.62860425,5.39755158 5.49062612,4.78151841 C5.46425964,4.66142758 5.34634718,4.58560569 5.22851227,4.61253826 C5.1105998,4.6393721 5.03615327,4.75938395 5.06251975,4.87947478 C5.24555354,5.69767993 6.05981256,6.29165762 6.99970012,6.29165762 C7.93650512,6.29165762 8.75227634,5.69929904 8.93682233,4.88417415 Z M7.11133115,7.85076513 C7.06014916,7.76544575 6.93919292,7.76544575 6.88801092,7.85076513 L6.18074942,9.22975615 C6.14666686,9.28498371 6.15750426,9.35772534 6.20558432,9.40029618 L6.91284582,10.1427584 C6.96245746,10.1870273 7.03688461,10.1870273 7.0865738,10.1427584 L7.79381592,9.40029618 C7.84183782,9.35772534 7.85273338,9.28498371 7.81859266,9.22975615 L7.11133115,7.85076513 Z" id="Fill-5" fill="#FFFFFF"></path>
                </g>
            </g>
        </g>
    </g>
</svg>