<?xml version="1.0" encoding="UTF-8"?>
<svg width="16px" height="16px" viewBox="0 0 16 16" version="1.1" xmlns="http://www.w3.org/2000/svg" xmlns:xlink="http://www.w3.org/1999/xlink">
    <title>参会人</title>
    <defs>
        <polygon id="path-1" points="0 0 16 0 16 14 0 14"></polygon>
    </defs>
    <g id="页面-1" stroke="none" stroke-width="1" fill="none" fill-rule="evenodd">
        <g id="日视图-查看视图-图标" transform="translate(-1146.000000, -633.000000)">
            <g id="参会人" transform="translate(1146.000000, 633.000000)">
                <rect id="矩形" x="0" y="0" width="16" height="16"></rect>
                <g id="参与人" transform="translate(0.000000, 1.000000)">
                    <mask id="mask-2" fill="white">
                        <use xlink:href="#path-1"></use>
                    </mask>
                    <g id="Clip-2"></g>
                    <path d="M12.720445,8.49799334 C12.5484313,7.86273796 12.1624286,7.32249051 11.6403413,6.98618362 L9.20873278,5.39291146 C9.81764465,4.82516671 10.2219588,3.77189818 10.2219588,2.26740302 C10.2219588,1.01528703 9.23923536,0 8.0263178,0 C6.81429227,0 5.83156887,1.01528703 5.83156887,2.26740302 C5.83156887,3.59897674 6.27555369,4.75299645 6.93102475,5.38082891 C6.91923008,5.37164508 6.90741064,5.37164508 6.89551687,5.35956252 L4.4131863,6.98702344 C3.891099,7.32292396 3.50509635,7.86295469 3.33308259,8.49799334 L2.97359315,9.85741653 C2.80450328,10.4954081 3.27056592,11.1250827 3.91248303,11.1250827 L12.1410446,11.1250827 C12.7829617,11.1250827 13.2481571,10.4954081 13.0798354,9.85741653 L12.720445,8.49799334 Z" id="Fill-1" fill="#0080FF" mask="url(#mask-2)"></path>
                    <path d="M15.4023433,12.6869294 C15.7171072,12.688609 15.9772836,12.9556173 15.9985932,13.299022 C16.0199773,13.6423184 15.7952344,13.9453847 15.4835679,13.9935253 L15.4023433,14 L0.596200397,14 C0.28143652,13.9984016 0.021260128,13.7313121 -0.00012389352,13.3880157 C-0.021433579,13.0447194 0.203334045,12.741626 0.515000584,12.693377 L0.596200397,12.6878776 L15.4023433,12.6878776 L15.4023433,12.6869294 Z" id="Fill-3" fill="#0080FF" mask="url(#mask-2)"></path>
                    <path d="M11.4061082,0.528923445 C12.4641341,0.528923445 13.3209322,1.49531133 13.3209322,2.68538908 C13.3209322,4.11676581 12.9673648,5.11734246 12.4379183,5.65734609 L14.5574638,7.17381545 C15.0226344,7.50949924 15.3579151,8.02124703 15.4988563,8.6108 L15.8117866,9.9035524 C15.959765,10.5110937 15.5529483,11.1093971 14.9938911,11.1093971 L13.742071,11.1103723 C13.9258794,10.6571139 13.963444,10.1491588 13.8486442,9.66967634 L13.5272892,8.30475369 C13.3275233,7.42895789 12.8401757,6.66407239 12.1579932,6.15579224 L10.8156813,5.16908615 C11.1287107,4.44600196 11.3206465,3.50470028 11.3206465,2.32654254 C11.3206465,1.70239445 11.1540593,1.11709477 10.8723997,0.615912442 C11.0415887,0.558560929 11.2208379,0.528923445 11.4061082,0.528923445 Z" id="Fill-4" fill="#64AFFA" mask="url(#mask-2)"></path>
                    <path d="M4.55189748,0.528922595 C3.49463974,0.528922595 2.63784171,1.49531133 2.63784171,2.68538908 C2.63784171,4.11676581 2.99140904,5.11734246 3.52085561,5.65734609 L1.40131005,7.17381545 C0.935842093,7.50928252 0.60016499,8.02113867 0.459149385,8.6108 L0.146219132,9.9035524 C-0.00099114816,10.5110937 0.40589995,11.1093971 0.964882734,11.1093971 L2.21670286,11.1103723 C2.03289443,10.6571139 1.99532992,10.1491588 2.11012965,9.66967634 L2.43148467,8.30475369 C2.63105235,7.42917462 3.11810255,6.66426202 3.80001249,6.15579224 L5.3021223,5.16908615 C4.98909294,4.44600196 4.79802435,3.50470028 4.79802435,2.32654254 C4.79802435,1.71626501 4.93926296,1.1448088 5.18615797,0.651049387 C4.98289826,0.569966214 4.76821557,0.528706717 4.55189748,0.528922595 Z" id="Fill-5" fill="#7ACEEB" mask="url(#mask-2)"></path>
                </g>
            </g>
        </g>
    </g>
</svg>