<?xml version="1.0" standalone="no"?><!DOCTYPE svg PUBLIC "-//W3C//DTD SVG 1.1//EN" "http://www.w3.org/Graphics/SVG/1.1/DTD/svg11.dtd"><svg t="1710922328308" class="icon" viewBox="0 0 1024 1024" version="1.1" xmlns="http://www.w3.org/2000/svg" p-id="14797" xmlns:xlink="http://www.w3.org/1999/xlink" width="128" height="128"><path d="M512 490.666667c-136.533333 0-247.466667-110.933333-247.466667-247.466667S375.466667 0 512 0s247.466667 110.933333 247.466667 247.466667-110.933333 243.2-247.466667 243.2zM512 85.333333C422.4 85.333333 349.866667 157.866667 349.866667 247.466667S422.4 405.333333 512 405.333333s162.133333-72.533333 162.133333-162.133333S601.6 85.333333 512 85.333333zM938.666667 1024c-25.6 0-42.666667-17.066667-42.666667-42.666667 0-187.733333-170.666667-341.333333-384-341.333333s-384 153.6-384 341.333333c0 25.6-17.066667 42.666667-42.666667 42.666667s-42.666667-17.066667-42.666666-42.666667c0-234.666667 209.066667-426.666667 469.333333-426.666666s469.333333 192 469.333333 426.666666c0 25.6-17.066667 42.666667-42.666666 42.666667z" p-id="14798"></path></svg>