<?xml version="1.0" standalone="no"?><!DOCTYPE svg PUBLIC "-//W3C//DTD SVG 1.1//EN" "http://www.w3.org/Graphics/SVG/1.1/DTD/svg11.dtd"><svg t="1687396848420" class="icon" viewBox="0 0 1024 1024" version="1.1" xmlns="http://www.w3.org/2000/svg" p-id="30878" xmlns:xlink="http://www.w3.org/1999/xlink" width="20" height="20"><path d="M888.490667 63.488H135.509333c-39.808 0-72.021333 32.213333-72.021333 72.021333v753.066667c0 39.808 32.213333 72.021333 72.021333 72.021333h753.066667c39.808 0 72.021333-32.213333 72.021333-71.978666V135.509333a72.106667 72.106667 0 0 0-72.106666-72.021333z m-272.085334 643.2a36.010667 36.010667 0 0 1-49.322666 52.48l-235.776-220.970667A35.754667 35.754667 0 0 1 320 512a35.84 35.84 0 0 1 11.392-26.282667l235.818667-221.013333a36.010667 36.010667 0 0 1 49.28 52.48L408.746667 512l207.701333 194.688z" p-id="30879"></path></svg>