<?xml version="1.0" standalone="no"?><!DOCTYPE svg PUBLIC "-//W3C//DTD SVG 1.1//EN" "http://www.w3.org/Graphics/SVG/1.1/DTD/svg11.dtd"><svg t="1687416064609" class="icon" viewBox="0 0 1024 1024" version="1.1" xmlns="http://www.w3.org/2000/svg" p-id="10643" xmlns:xlink="http://www.w3.org/1999/xlink" width="20" height="20"><path d="M512 297.92c-117.97333333 0-214.08 96-214.08 214.08s96 214.08 214.08 214.08 214.08-96 214.08-214.08-96-214.08-214.08-214.08z m0 364.16c-82.77333333 0-150.08-67.30666667-150.08-150.08S429.22666667 361.92 512 361.92 662.08 429.22666667 662.08 512 594.77333333 662.08 512 662.08z" p-id="10644"></path><path d="M881.81333333 512c0-34.13333333 20.26666667-64.85333333 51.52-78.4l25.28-10.88-7.04-26.56c-10.45333333-39.57333333-26.13333333-77.54666667-46.82666666-112.96l-13.86666667-23.78666667-25.6 10.13333334c-10.02666667 3.94666667-20.58666667 5.97333333-31.46666667 5.97333333-47.04 0-85.33333333-38.29333333-85.33333333-85.33333333 0-10.88 2.02666667-21.44 5.97333333-31.46666667l10.13333334-25.6-23.78666667-13.86666667c-35.41333333-20.69333333-73.38666667-36.48-112.96-46.82666666l-26.56-7.04-10.88 25.28c-13.54666667 31.36-44.26666667 51.52-78.4 51.52s-64.85333333-20.26666667-78.4-51.52l-10.88-25.28-26.56 7.04c-39.57333333 10.45333333-77.54666667 26.13333333-112.96 46.82666666l-23.78666667 13.86666667 10.13333334 25.6c3.94666667 10.02666667 5.97333333 20.58666667 5.97333333 31.46666667 0 47.04-38.29333333 85.33333333-85.33333333 85.33333333-10.88 0-21.44-2.02666667-31.46666667-5.97333333l-25.6-10.13333334-13.86666667 23.78666667c-20.69333333 35.41333333-36.48 73.38666667-46.82666666 112.96l-7.04 26.56 25.28 10.88c31.36 13.54666667 51.52 44.26666667 51.52 78.4s-20.26666667 64.85333333-51.52 78.4l-25.28 10.88 7.04 26.56c10.45333333 39.57333333 26.13333333 77.54666667 46.82666666 112.96l13.86666667 23.78666667 25.6-10.13333334c10.02666667-3.94666667 20.58666667-5.97333333 31.46666667-5.97333333 47.04 0 85.33333333 38.29333333 85.33333333 85.33333333 0 10.88-2.02666667 21.44-5.97333333 31.46666667l-10.13333334 25.6 23.78666667 13.86666667c35.41333333 20.69333333 73.38666667 36.48 112.96 46.82666666l26.56 7.04 10.88-25.28c13.54666667-31.36 44.26666667-51.52 78.4-51.52s64.85333333 20.26666667 78.4 51.52l10.88 25.28 26.56-7.04c39.57333333-10.45333333 77.54666667-26.13333333 112.96-46.82666666l23.78666667-13.86666667-10.13333334-25.6c-3.94666667-10.02666667-5.97333333-20.58666667-5.97333333-31.46666667 0-47.04 38.29333333-85.33333333 85.33333333-85.33333333 10.88 0 21.44 2.02666667 31.46666667 5.97333333l25.6 10.13333334 13.86666667-23.78666667c20.69333333-35.41333333 36.48-73.38666667 46.82666666-112.96l7.04-26.56-25.28-10.88c-31.36-13.54666667-51.52-44.26666667-51.52-78.4z m-20.58666666 175.04c-8.96-1.70666667-18.02666667-2.45333333-27.30666667-2.45333333-82.34666667 0-149.33333333 66.98666667-149.33333333 149.33333333 0 9.28 0.85333333 18.34666667 2.45333333 27.30666667-16.74666667 8.42666667-34.02666667 15.57333333-51.84 21.54666666-27.52-40.10666667-73.28-64.85333333-123.2-64.85333333s-95.68 24.74666667-123.2 64.85333333c-17.81333333-5.86666667-35.09333333-13.12-51.84-21.54666666 1.70666667-8.96 2.45333333-18.02666667 2.45333333-27.30666667 0-82.34666667-66.98666667-149.33333333-149.33333333-149.33333333-9.28 0-18.34666667 0.85333333-27.30666667 2.45333333-8.42666667-16.74666667-15.57333333-34.02666667-21.54666666-51.84 40.10666667-27.52 64.85333333-73.28 64.85333333-123.2s-24.74666667-95.68-64.85333333-123.2c5.86666667-17.81333333 13.12-35.09333333 21.54666666-51.84 8.96 1.70666667 18.02666667 2.45333333 27.30666667 2.45333333 82.34666667 0 149.33333333-66.98666667 149.33333333-149.33333333 0-9.28-0.85333333-18.34666667-2.45333333-27.30666667 16.74666667-8.42666667 34.02666667-15.57333333 51.84-21.54666666 27.52 40.10666667 73.28 64.85333333 123.2 64.85333333s95.68-24.74666667 123.2-64.85333333c17.70666667 5.86666667 35.09333333 13.12 51.84 21.54666666-1.70666667 8.96-2.45333333 18.02666667-2.45333333 27.30666667 0 82.34666667 66.98666667 149.33333333 149.33333333 149.33333333 9.28 0 18.34666667-0.85333333 27.30666667-2.45333333 8.42666667 16.74666667 15.57333333 34.02666667 21.54666666 51.84-40.10666667 27.52-64.85333333 73.28-64.85333333 123.2s24.74666667 95.68 64.85333333 123.2c-5.97333333 17.81333333-13.22666667 35.09333333-21.54666666 51.84z" p-id="10645"></path></svg>